<?xml version="1.0" standalone="no"?>
<!DOCTYPE svg PUBLIC "-//W3C//DTD SVG 20010904//EN"
 "http://www.w3.org/TR/2001/REC-SVG-20010904/DTD/svg10.dtd">
<svg version="1.0" xmlns="http://www.w3.org/2000/svg"
 width="300.000000pt" height="300.000000pt" viewBox="0 0 300.000000 300.000000"
 preserveAspectRatio="xMidYMid meet">
<metadata>
Created by potrace 1.11, written by Peter Selinger 2001-2013
</metadata>
<g transform="translate(0.000000,300.000000) scale(0.100000,-0.100000)"
fill="#000000" stroke="none">
<path d="M0 1500 l0 -1500 1500 0 1500 0 0 1500 0 1500 -1500 0 -1500 0 0
-1500z m1763 856 c203 -39 334 -168 345 -340 13 -204 -117 -363 -353 -432
l-60 -17 95 -23 c298 -74 437 -245 408 -504 -20 -167 -150 -301 -363 -371 -69
-23 -79 -24 -557 -27 l-488 -3 0 45 0 45 48 6 c26 3 72 14 102 23 95 29 90
-16 90 740 0 534 -3 659 -14 686 -16 39 -70 68 -158 86 l-58 11 0 45 0 44 444
0 c344 0 461 -3 519 -14z"/>
<path d="M1290 1935 l0 -338 133 6 c163 6 218 22 285 82 69 62 94 124 100 246
8 160 -38 258 -145 310 -43 21 -66 23 -210 27 l-163 4 0 -337z"/>
<path d="M1290 1188 c0 -364 3 -379 81 -416 58 -28 158 -37 238 -22 162 29
252 124 282 297 35 200 -42 362 -203 426 -45 18 -80 21 -225 25 l-173 4 0
-314z"/>
</g>
</svg>
