<?xml version="1.0" standalone="no"?>
<!DOCTYPE svg PUBLIC "-//W3C//DTD SVG 20010904//EN"
 "http://www.w3.org/TR/2001/REC-SVG-20010904/DTD/svg10.dtd">
<svg version="1.0" xmlns="http://www.w3.org/2000/svg"
 width="384.000000pt" height="384.000000pt" viewBox="0 0 384.000000 384.000000"
 preserveAspectRatio="xMidYMid meet">
<metadata>
Created by potrace 1.11, written by Peter Selinger 2001-2013
</metadata>
<g transform="translate(0.000000,384.000000) scale(0.100000,-0.100000)"
fill="#000000" stroke="none">
<path d="M0 1920 l0 -1920 1920 0 1920 0 0 1920 0 1920 -1920 0 -1920 0 0
-1920z m757 605 c13 -49 28 -108 32 -130 18 -77 81 -330 90 -360 6 -16 19 -70
31 -120 11 -49 26 -105 31 -122 11 -34 27 -43 33 -20 17 55 171 530 181 557 7
19 30 87 50 150 20 63 39 121 44 128 6 9 43 12 151 10 159 -3 147 2 173 -83 9
-27 34 -111 57 -185 23 -74 45 -144 49 -155 4 -11 15 -42 23 -70 9 -27 35
-111 58 -185 47 -152 66 -200 78 -200 5 0 17 33 26 73 10 39 23 95 31 122 14
50 43 164 71 280 8 33 18 76 23 95 5 19 16 62 25 95 23 80 56 207 56 212 0 10
797 -5 840 -16 198 -49 281 -92 385 -196 131 -131 186 -271 187 -474 0 -86
-15 -189 -36 -249 -61 -173 -199 -313 -388 -396 -20 -9 -42 -16 -50 -16 -8 0
-18 -3 -22 -7 -27 -27 -126 -35 -458 -40 l-348 -5 0 294 c0 356 -8 385 -54
211 -13 -49 -43 -151 -65 -228 -58 -193 -61 -206 -70 -240 l-7 -30 -142 -3
c-140 -3 -142 -2 -151 20 -9 23 -63 191 -141 438 -23 74 -46 144 -50 155 -12
31 -88 277 -96 308 -3 15 -10 27 -14 27 -4 0 -22 -46 -40 -102 -17 -57 -49
-157 -70 -223 -22 -66 -46 -145 -55 -175 -9 -30 -20 -64 -25 -75 -4 -11 -27
-81 -50 -155 -24 -74 -48 -153 -55 -175 l-13 -40 -136 -3 -136 -3 -11 28 c-6
15 -17 51 -24 78 -8 28 -21 73 -29 100 -8 28 -35 122 -61 210 -26 88 -53 175
-61 193 -8 18 -14 42 -14 52 0 11 -4 28 -9 38 -5 9 -28 82 -51 162 -22 80 -48
165 -56 190 -37 115 -87 288 -91 318 l-5 32 168 -2 168 -3 23 -90z"/>
<path d="M2495 2318 c-3 -7 -4 -191 -3 -408 l3 -395 135 1 c157 1 222 12 305
48 98 44 167 124 200 232 18 59 20 191 3 248 -27 91 -102 181 -185 221 -21 10
-46 22 -57 27 -61 31 -391 52 -401 26z m364 -322 c46 -24 64 -85 39 -138 -13
-27 -64 -58 -96 -58 -30 0 -78 36 -91 69 -17 40 -7 77 31 113 34 31 73 36 117
14z"/>
</g>
</svg>
